<?xml version="1.0" encoding="utf-8"?>
<!-- Generator: Adobe Illustrator 24.3.0, SVG Export Plug-In . SVG Version: 6.00 Build 0)  -->
<svg version="1.1" id="Layer_1" xmlns="http://www.w3.org/2000/svg" xmlns:xlink="http://www.w3.org/1999/xlink" x="0px" y="0px"
	 viewBox="0 0 2000 2000" style="enable-background:new 0 0 2000 2000;" xml:space="preserve">
<style type="text/css">
	.st0{display:none;fill:#2E0927;stroke:#0FF896;stroke-width:13;stroke-miterlimit:10;}
	.st1{display:none;fill:#0FF896;}
	.st2{display:none;}
	.st3{display:inline;}
	.st4{fill:#1EAE72;}
	.st5{fill:url(#SVGID_1_);}
	.st6{fill:url(#SVGID_2_);}
	.st7{fill:url(#SVGID_3_);}
	.st8{fill:url(#SVGID_4_);}
	.st9{fill:url(#SVGID_5_);}
	.st10{fill:url(#SVGID_6_);}
	.st11{fill:url(#SVGID_7_);}
	.st12{fill:url(#SVGID_8_);}
	.st13{fill:url(#SVGID_9_);}
	.st14{fill:url(#SVGID_10_);}
	.st15{fill:url(#SVGID_11_);}
	.st16{fill:url(#SVGID_12_);}
	.st17{fill:url(#SVGID_13_);}
	.st18{fill:url(#SVGID_14_);}
	.st19{fill:url(#SVGID_15_);}
	.st20{fill:url(#SVGID_16_);}
	.st21{fill:#00B9FE;}
	.st22{fill:#FF3F95;}
	.st23{fill:#ECA414;}
	.st24{filter:url(#Adobe_OpacityMaskFilter);}
	.st25{fill:#FFFFFF;}
	.st26{mask:url(#SVGID_17_);}
	.st27{opacity:0.1;}
	.st28{opacity:0.09;}
	.st29{opacity:0.05;}
	.st30{opacity:0.06;}
	.st31{opacity:0.08;}
	.st32{display:none;fill:none;stroke:#264543;stroke-width:22.6163;stroke-miterlimit:10;}
	.st33{display:none;fill:none;stroke:#1E815F;stroke-width:22.6163;stroke-miterlimit:10;}
	.st34{display:none;fill:none;stroke:#17BC7A;stroke-width:22.6163;stroke-miterlimit:10;}
	.st35{display:inline;fill:#0FF896;}
	.st36{display:inline;fill:#00B9FE;}
	.st37{display:inline;fill:#FF3F95;}
	.st38{display:inline;fill:#ECA414;}
	.st39{filter:url(#Adobe_OpacityMaskFilter_1_);}
	.st40{mask:url(#SVGID_18_);}
	.st41{display:none;fill:#2E0927;}
	.st42{display:inline;fill:#17BC7A;}
	.st43{display:inline;fill:#1E815F;}
	.st44{display:inline;fill:#264543;}
	.st45{display:inline;fill:#2E0927;}
	.st46{display:inline;fill:#2E0927;stroke:#0FF896;stroke-width:15;stroke-miterlimit:10;}
	.st47{fill:#0FF896;}
	.st48{display:none;fill:#2E0927;stroke:#0FF896;stroke-width:15;stroke-miterlimit:10;}
	.st49{display:inline;fill:#2E0927;stroke:#0FF896;stroke-width:13;stroke-miterlimit:10;}
	.st50{fill:#E1BEE8;}
	.st51{fill:#C4A2D7;}
	.st52{fill:#8B69B5;}
	.st53{fill:#A885C6;}
	.st54{display:none;fill:#2E0927;stroke:#1E815F;stroke-width:17;stroke-miterlimit:10;}
	.st55{display:none;fill:#2E0927;stroke:#17BC7A;stroke-width:17;stroke-miterlimit:10;}
	.st56{display:inline;fill:#2E0927;stroke:#17BC7A;stroke-width:17;stroke-miterlimit:10;}
	.st57{display:inline;fill:#8B69B5;}
	.st58{display:inline;fill:#A885C6;}
	.st59{display:inline;fill:#C4A2D7;}
	.st60{display:inline;fill:#E1BEE8;}
</style>
<g>
	<path class="st50" d="M1381.74,826.46c-1.32-70.63-59.18-127.67-130.12-127.67c-10.75,0-21.37,1.29-31.62,3.84
		c-21.36-14.28-46.2-21.8-72.1-21.8c-27.52,0-53.9,8.59-76.29,24.84c-20.76,15.07-36.38,35.44-45.38,59.12
		c-5.12,1.15-10.33,2.58-15.53,4.27c-30.03,9.75-54.98,26.61-74.16,50.11c-10.25,12.55-18.29,26.56-23.95,41.7
		c-9.41,3.82-18.33,8.47-26.6,13.85c-3.42,0.15-6.85,0.42-10.26,0.81c-17.69-11.2-37.18-18.61-57.98-22.04
		c-10.26-1.69-20.65-2.55-30.87-2.55c-4.27,0-8.65,0.15-13.04,0.46c-0.3,0.02-0.6,0.05-0.9,0.07c-11.85,0.9-22.77,2.62-33.38,5.26
		c-6.74,1.67-12.32,3.23-17.06,4.77l-5.02,1.63c-4.68,1.52-9.96,3.47-16.62,6.14c-9.47,3.79-18.97,8.46-29.06,14.27
		c-10.53,6.07-21.04,13.34-31.23,21.61c-13.51,10.94-25.73,23.85-36.32,38.38c-11.17,15.29-20.23,32.43-26.94,50.93
		c-7.69,21.17-11.59,44.08-11.59,68.08v88.64c0,28.4,5.15,53.2,15.73,75.83c11.63,24.94,28.3,45.48,49.54,61.05
		c19.55,14.33,41.53,23.78,65.34,28.08c11.08,2,22.32,3.02,33.42,3.02c3.9,0,7.72-0.12,11.33-0.35c12.33-0.76,24.32-2.57,35.64-5.39
		c6.97-1.74,12.24-3.22,17.08-4.79l0.2-0.06c6.56,1.01,13.26,1.52,19.95,1.52c14.66,0,29.09-2.34,44.12-7.17l0.8-0.26
		c11.3-3.71,22.32-8.94,32.77-15.52c9.82-6.19,19-13.72,27.33-22.4c8.6-1.45,17.17-3.55,25.54-6.26
		c9.45-3.08,18.61-6.95,27.23-11.52c9.36-1.25,18.66-3.4,28.38-6.55c15.28-4.97,29.34-11.87,41.85-20.51
		c14.93-0.19,29.58-2.69,44.69-7.61c14.4-4.67,27.76-11.14,39.76-19.23c8.1-0.34,16.25-1.35,24.27-2.99
		c7.78-1.59,15.47-3.61,22.85-6.01l58.56-19.03c7.6-2.46,15.05-5.32,22.15-8.48c13.98-6.2,26.92-14.28,38.45-24.01
		c14.89-12.58,27.04-27.77,36.11-45.18c5.22-10.04,9.23-20.65,11.96-31.61c21.54-6.32,41.12-18.18,56.9-34.51
		c23.57-24.4,36.55-56.5,36.55-90.37C1434.26,889.73,1414.71,851.03,1381.74,826.46z M1326.44,1041.92l-1.1,5.21
		c-2.37,11.26-6.26,22.16-11.58,32.38c-8.04,15.43-18.81,28.9-32,40.04c-10.3,8.69-21.87,15.91-34.39,21.47
		c-6.56,2.93-13.45,5.56-20.49,7.85l-58.56,19.03c-6.78,2.2-13.84,4.06-21,5.52c-7.89,1.61-15.91,2.53-23.85,2.73l-2.56,0.06
		l-2.1,1.47c-11.15,7.8-23.72,14.01-37.37,18.44c-14.04,4.57-27.56,6.79-41.34,6.79l-3.52-0.02l-2.25,1.62
		c-11.64,8.37-24.9,15.01-39.43,19.74c-9.21,2.99-17.98,4.97-26.79,6.05l-1.6,0.2l-1.42,0.77c-8.13,4.41-16.81,8.13-25.8,11.05
		c-8.42,2.74-17.09,4.78-25.75,6.09l-2.95,0.45l-2.03,2.19c-7.85,8.5-16.58,15.81-25.96,21.72c-9.27,5.85-19.03,10.48-28.95,13.74
		l-0.76,0.24c-13.31,4.27-26.04,6.35-38.91,6.35c-6.45,0-12.91-0.54-19.19-1.62l-2.07-0.35l-4.15,1.35
		c-4.45,1.45-9.37,2.82-15.94,4.47c-10.31,2.57-21.27,4.22-32.59,4.92c-3.27,0.21-6.73,0.32-10.27,0.32
		c-10.09,0-20.32-0.92-30.4-2.75c-21.25-3.84-40.87-12.27-58.32-25.06c-18.91-13.86-33.77-32.21-44.19-54.54
		c-9.51-20.33-14.14-42.78-14.14-68.64v-88.64c0-22.02,3.56-42.97,10.58-62.28c6.16-17,14.47-32.71,24.69-46.72
		c9.72-13.34,20.92-25.18,33.29-35.2c9.5-7.71,19.26-14.47,29.01-20.08c9.38-5.41,18.18-9.73,26.9-13.23
		c6.29-2.52,11.22-4.35,15.53-5.75l5.02-1.63c4.35-1.41,9.56-2.86,15.91-4.44c9.7-2.41,19.72-3.99,30.64-4.81l0.17-0.01
		c0.18-0.02,0.36-0.03,0.54-0.04c4-0.28,7.99-0.42,11.86-0.42c9.3,0,18.75,0.78,28.1,2.32c19.48,3.21,37.66,10.33,54.04,21.17
		l2.67,1.77l3.18-0.44c4.63-0.64,9.35-1.02,14.01-1.14l2.48-0.06l2.06-1.39c8.81-5.95,18.52-10.94,28.86-14.86l3.73-1.41l1.3-3.78
		c5.04-14.67,12.57-28.2,22.38-40.21c17.08-20.93,39.36-35.97,66.24-44.69c6.16-2,12.31-3.6,18.26-4.74l4.87-0.93l1.59-4.69
		c15.57-46.07,58.66-77.03,107.23-77.03c23.69,0,46.36,7.24,65.55,20.94l3.32,2.37l3.93-1.11c9.94-2.81,20.34-4.24,30.91-4.24
		c62.39,0,113.14,50.75,113.14,113.14c0,0.59,0,1.17-0.01,1.76l-0.07,4.53l3.73,2.58c30.59,21.21,48.86,56,48.86,93.06
		c0,29.44-11.29,57.34-31.78,78.56c-14.8,15.32-33.42,26.11-53.87,31.21L1326.44,1041.92z"/>
	<path class="st51" d="M1351.96,841.77c0.53-4.24,0.8-8.54,0.8-12.84c0-55.77-45.37-101.14-101.14-101.14
		c-12.93,0-25.42,2.36-37.2,7.03c-18.48-16.15-41.88-24.99-66.52-24.99c-48.1,0-89.5,34.24-99.07,80.72
		c-9.57,0.83-19.18,2.84-29.18,6.09c-24.64,8-45.05,21.75-60.65,40.87c-10.97,13.43-18.74,28.84-23.12,45.87
		c-1,0.3-2.03,0.62-3.08,0.96c-13.93,4.53-26.56,11.01-37.58,19.29c-1.06-0.03-2.11-0.05-3.14-0.05c-7.79,0-15.43,0.78-23.25,2.39
		c-0.36-0.27-0.72-0.54-1.08-0.8c-16.35-12.02-34.75-19.78-54.71-23.07c-8.71-1.44-17.5-2.16-26.15-2.16
		c-3.59,0-7.3,0.13-11.03,0.39l-0.57,0.04l-0.07,0.01c-10.24,0.77-19.62,2.25-28.66,4.5c-6.07,1.51-11.01,2.88-15.09,4.21
		l-5.04,1.64c-4.04,1.31-8.73,3.04-14.76,5.47c-8.18,3.28-16.48,7.36-25.37,12.48c-9.2,5.3-18.44,11.7-27.46,19.02
		c-11.55,9.35-22.03,20.44-31.15,32.94c-9.55,13.08-17.33,27.8-23.1,43.74c-6.54,17.99-9.85,37.56-9.85,58.17v88.64
		c0,24.06,4.26,44.85,13.02,63.57c9.55,20.47,23.14,37.27,40.4,49.92c15.96,11.7,33.92,19.42,53.36,22.93
		c9.38,1.7,18.89,2.56,28.26,2.56c3.27,0,6.49-0.1,9.55-0.3c10.58-0.65,20.8-2.19,30.39-4.58c6.3-1.57,10.96-2.88,15.13-4.23
		l4.87-1.59c0.77-0.25,1.55-0.51,2.32-0.77c0.59,0.13,1.16,0.25,1.71,0.36c6.58,1.34,13.39,2.02,20.24,2.02
		c11.61,0,23.14-1.89,35.25-5.78l0.62-0.2c9.04-2.97,17.91-7.18,26.35-12.5c10.42-6.57,19.93-15.02,28.3-25.17
		c10.47-1.04,20.9-3.24,31.07-6.54c9.6-3.12,18.75-7.19,27.22-12.11c9.32-0.83,18.63-2.79,28.39-5.96
		c15.69-5.11,29.64-12.56,41.52-22.18c2.44,0.17,4.92,0.25,7.4,0.25c12.5,0,24.81-2.03,37.63-6.21c14.63-4.75,27.8-11.66,39.2-20.56
		c1.05,0.03,2.12,0.04,3.2,0.04c8.22,0,16.56-0.85,24.78-2.53c6.72-1.38,13.35-3.12,19.69-5.17l58.58-19.04
		c6.63-2.15,13.14-4.64,19.33-7.41c11.47-5.09,22.07-11.7,31.5-19.66c11.99-10.13,21.78-22.38,29.1-36.4
		c6.88-13.24,11.08-27.55,12.49-42.63c23.25-2.63,44.76-13.21,61.23-30.26c18.32-18.97,28.41-43.9,28.41-70.22
		C1405.26,893.62,1384.54,859.33,1351.96,841.77z M1299.36,1015.23l-0.25,7.93c-0.49,15.34-4.21,29.8-11.06,42.97
		c-6.28,12.05-14.69,22.57-24.98,31.26c-8.2,6.91-17.42,12.67-27.44,17.11c-5.66,2.53-11.61,4.8-17.68,6.77l-58.58,19.04
		c-5.74,1.86-11.75,3.44-17.85,4.69c-7.1,1.45-14.3,2.19-21.38,2.19c-1.92,0-3.79-0.05-5.57-0.15l-3.32-0.18l-2.56,2.12
		c-10.31,8.53-22.49,15.11-36.2,19.56c-11.1,3.62-21.69,5.37-32.38,5.37c-3.14,0-6.26-0.16-9.28-0.47l-3.65-0.38l-2.78,2.4
		c-10.75,9.27-23.69,16.41-38.46,21.21c-9.14,2.97-17.77,4.71-26.39,5.34l-2.02,0.15l-1.74,1.05c-7.85,4.72-16.42,8.6-25.46,11.54
		c-10.08,3.27-20.45,5.32-30.82,6.08l-3.83,0.28l-2.32,3.06c-0.52,0.68-1.05,1.35-1.55,1.97c-7.3,8.95-15.59,16.39-24.67,22.11
		c-7.27,4.58-14.87,8.2-22.57,10.73l-0.52,0.17c-10.41,3.34-20.25,4.96-30.06,4.96c-5.71,0-11.37-0.57-16.87-1.69
		c-1.08-0.22-2.23-0.47-3.53-0.79l-2.42-0.59l-2.36,0.82c-1.42,0.49-2.88,0.98-4.34,1.46l-4.87,1.59
		c-3.78,1.23-8.09,2.43-13.99,3.91c-8.58,2.13-17.77,3.52-27.34,4.11c-2.73,0.17-5.58,0.26-8.49,0.26c-8.36,0-16.85-0.77-25.24-2.28
		c-16.88-3.05-32.47-9.75-46.33-19.91c-14.93-10.94-26.72-25.54-35.05-43.41c-7.68-16.42-11.42-34.87-11.42-56.38v-88.64
		c0-18.63,2.97-36.25,8.83-52.37c5.23-14.43,12.25-27.73,20.86-39.52c8.25-11.32,17.71-21.33,28.12-29.76
		c8.33-6.76,16.82-12.64,25.24-17.49c8.19-4.72,15.78-8.46,23.21-11.44c5.67-2.28,10.01-3.89,13.68-5.07l5.04-1.64
		c3.69-1.2,8.25-2.47,13.94-3.88c8.22-2.05,16.8-3.38,26.23-4.07l0.51-0.04l0.04-0.01c3.2-0.21,6.38-0.32,9.45-0.32
		c7.72,0,15.59,0.65,23.39,1.94c17.29,2.85,33.24,9.58,47.4,19.98c1.26,0.93,2.53,1.91,3.77,2.9l3.25,2.61l4.05-0.97
		c7.93-1.9,15.56-2.82,23.33-2.82c1.75,0,3.56,0.05,5.4,0.16l3.23,0.18l2.54-2.01c10.02-7.96,21.73-14.15,34.8-18.4
		c2.5-0.81,4.81-1.48,7.06-2.05l5.1-1.3l1.11-5.15c3.52-16.38,10.54-31.1,20.87-43.75c13.5-16.55,31.24-28.48,52.73-35.45
		c10.87-3.53,21.14-5.39,31.4-5.67l7.24-0.2l0.96-7.18c5.55-41.58,41.4-72.94,83.39-72.94c22.08,0,42.99,8.54,58.86,24.05l4.19,4.1
		l5.32-2.47c11.06-5.12,22.95-7.72,35.35-7.72c46.4,0,84.14,37.75,84.14,84.14c0,5.43-0.51,10.84-1.52,16.06l-1.26,6.55l6.07,2.78
		c29.9,13.7,49.21,43.75,49.21,76.54c0,45.46-35.57,82.39-80.97,84.07L1299.36,1015.23z"/>
	<path class="st52" d="M831.72,1153.98l-14.87-8.55c2.87-5.59,5.18-11.6,6.91-18.01c1.74-6.42,2.61-13.34,2.61-20.78V1018
		c0-9.61-1.37-17.35-4.09-23.21c-2.73-5.85-6.23-10.34-10.49-13.47c-4.26-3.13-8.97-5.12-14.13-5.97
		c-5.15-0.85-10.19-1.1-15.09-0.75c-4.91,0.36-9.32,1.02-13.24,2c-3.92,0.97-6.82,1.77-8.7,2.38l-5.06,1.64
		c-1.88,0.61-4.81,1.71-8.77,3.3c-3.97,1.59-8.4,3.8-13.31,6.63c-4.91,2.83-9.97,6.36-15.17,10.58c-5.21,4.22-9.97,9.29-14.28,15.2
		c-4.31,5.91-7.86,12.69-10.63,20.33c-2.78,7.65-4.17,16.28-4.17,25.89v88.64c0,9.82,1.39,17.7,4.17,23.64
		c2.77,5.94,6.32,10.49,10.63,13.65c4.31,3.16,9.07,5.2,14.28,6.14c5.2,0.94,10.26,1.25,15.17,0.94c4.91-0.3,9.34-0.95,13.31-1.94
		c3.96-0.99,6.89-1.79,8.77-2.4l5.06-1.65c1.19-0.38,2.77-0.93,4.76-1.62c1.98-0.69,4.29-1.62,6.92-2.77
		c2.62-1.15,5.55-2.59,8.77-4.33s6.71-3.87,10.48-6.39l16.66,10.36c1.09,0.73,2.53,1.28,4.31,1.64c1.79,0.37,4.41-0.02,7.89-1.14
		c1.68-0.55,3.49-1.44,5.42-2.66c1.94-1.22,3.9-3.05,5.88-5.48c1.98-2.63,3.32-5.07,4.01-7.33c0.7-2.25,1.05-4.13,1.05-5.61
		c0-3.47-0.5-5.81-1.49-7.03C834.3,1156,833.11,1154.92,831.72,1153.98z M777.58,1128.14c-0.29,3.77-1.14,7.27-2.52,10.49
		c-1.29,2.9-3.23,5.76-5.8,8.58c-2.58,2.82-6.25,5-11.01,6.55c-4.86,1.58-8.6,1.8-11.23,0.67c-2.63-1.13-4.59-2.72-5.87-4.78
		c-1.49-2.29-2.33-5.24-2.53-8.85v-96.96c0.2-3.64,1.04-7.08,2.53-10.34c1.28-2.8,3.24-5.62,5.87-8.46
		c2.63-2.83,6.37-5.04,11.23-6.62c4.76-1.55,8.43-1.74,11.01-0.6c2.57,1.15,4.51,2.7,5.8,4.66c1.38,2.32,2.23,5.22,2.52,8.7V1128.14
		z"/>
	<path class="st52" d="M980.89,978.65c-1.59-2.66-3.87-4.47-6.84-5.44c-2.97-0.97-6.99-0.63-12.05,1.01
		c-5.16,1.68-9.25,3.97-12.27,6.89c-3.03,2.92-5.35,6.23-6.99,9.93c-1.64,3.71-2.7,7.67-3.2,11.9c-0.5,4.23-0.74,8.47-0.74,12.73
		v28.26c0,7.24-0.25,14.09-0.74,20.54c-0.5,6.46-1.46,12.25-2.9,17.38c-1.44,5.13-3.42,9.44-5.95,12.94
		c-2.53,3.5-5.78,5.89-9.74,7.18c-2.97,0.97-5.33,1.11-7.06,0.44c-1.74-0.67-3.05-1.88-3.94-3.63c-0.89-1.74-1.46-3.89-1.71-6.43
		c-0.25-2.54-0.37-5.26-0.37-8.13v-58c0-4.26-0.22-8.35-0.67-12.27c-0.45-3.92-1.46-7.21-3.05-9.87c-1.59-2.66-3.87-4.47-6.84-5.44
		c-2.97-0.97-6.99-0.63-12.05,1.01c-5.16,1.68-9.25,3.97-12.27,6.89c-3.03,2.92-5.35,6.23-6.99,9.93c-1.64,3.71-2.7,7.67-3.2,11.9
		c-0.5,4.23-0.74,8.47-0.74,12.73v61.87c0,9.92,1.36,17.8,4.09,23.66c2.73,5.86,6.27,10.16,10.63,12.91
		c4.36,2.75,9.27,4.13,14.72,4.14c5.45,0.01,10.9-0.87,16.36-2.64c4.86-1.58,9.12-3.73,12.79-6.46c3.67-2.73,6.82-5.71,9.44-8.94
		c2.63-3.23,4.78-6.61,6.47-10.13c1.69-3.52,2.92-6.85,3.72-9.98c0,2.08,0.2,4.5,0.6,7.24c0.4,2.75,1.36,5.16,2.9,7.24
		c1.54,2.08,3.84,3.54,6.92,4.37c3.07,0.84,7.34,0.37,12.79-1.4c5.45-1.77,9.69-4.11,12.72-7.03c3.02-2.92,5.28-6.18,6.77-9.78
		c1.49-3.61,2.38-7.47,2.68-11.58c0.3-4.11,0.45-8.3,0.45-12.56v-81.2c0-4.26-0.22-8.35-0.67-12.28
		C983.49,984.6,982.47,981.31,980.89,978.65z"/>
	<path class="st52" d="M1067.45,950.45c-1.59-2.61-3.87-4.4-6.84-5.36c-2.97-0.97-6.99-0.63-12.05,1.01
		c-5.06,1.64-9.07,3.91-12.05,6.82c-2.97,2.9-5.26,6.17-6.84,9.81c-1.59,3.64-2.6,7.51-3.05,11.62c-0.45,4.11-0.67,8.25-0.67,12.41
		v82.1c0,4.16,0.22,8.18,0.67,12.05c0.45,3.87,1.46,7.11,3.05,9.72c1.58,2.61,3.87,4.37,6.84,5.29c2.97,0.92,6.99,0.55,12.05-1.09
		c5.06-1.64,9.07-3.89,12.05-6.74c2.97-2.85,5.25-6.09,6.84-9.73c1.59-3.64,2.6-7.54,3.05-11.7c0.45-4.16,0.67-8.32,0.67-12.49
		v-82.1c0-4.16-0.22-8.16-0.67-11.98C1070.05,956.28,1069.03,953.06,1067.45,950.45z"/>
	<path class="st52" d="M1065.88,886.34c-3.72-2.36-9.4-2.3-17.03,0.18c-7.14,2.32-12.69,5.91-16.66,10.77
		c-3.97,4.86-5.95,11.25-5.95,19.18c0,7.64,1.98,12.67,5.95,15.1c3.96,2.43,9.52,2.48,16.66,0.17c7.14-2.32,12.69-5.98,16.66-10.99
		c3.96-5.01,5.95-11.33,5.95-18.96C1071.46,893.85,1069.6,888.7,1065.88,886.34z"/>
	<path class="st52" d="M1213.04,1006.58c-2.58-0.45-5.53-0.31-8.85,0.42c-3.32,0.73-6.72,1.66-10.19,2.79l-32.72,10.63l51.76-89.1
		c0.79-1.84,1.66-3.76,2.6-5.75c0.94-1.99,1.81-3.98,2.6-5.98c0.79-1.99,1.46-3.92,2.01-5.78c0.54-1.86,0.82-3.64,0.82-5.32
		c0-3.77-0.92-6.57-2.75-8.4c-1.83-1.83-4.11-2.98-6.84-3.43c-2.73-0.45-5.73-0.39-9,0.17c-3.27,0.57-6.3,1.3-9.07,2.2l-58.89,19.14
		c-3.47,1.13-6.84,2.42-10.11,3.88c-3.27,1.46-6.22,3.29-8.85,5.48c-2.63,2.19-4.74,4.79-6.32,7.78c-1.59,3-2.38,6.62-2.38,10.89
		c0,4.16,0.79,7.2,2.38,9.12c1.58,1.92,3.69,3.09,6.32,3.52c2.63,0.44,5.58,0.29,8.85-0.42c3.27-0.71,6.64-1.64,10.11-2.77
		l32.72-10.63l-51.46,89.3c-2.08,3.65-3.99,7.54-5.73,11.68c-1.74,4.13-2.6,7.98-2.6,11.55c0,3.97,0.89,6.85,2.68,8.65
		c1.78,1.8,4.06,2.9,6.84,3.28c2.78,0.39,5.8,0.25,9.07-0.42c3.27-0.67,6.39-1.48,9.37-2.45l58.6-19.04
		c3.47-1.13,6.86-2.43,10.19-3.9c3.32-1.47,6.27-3.3,8.85-5.48c2.58-2.18,4.66-4.79,6.25-7.83c1.58-3.04,2.38-6.65,2.38-10.81
		c0-4.26-0.8-7.38-2.38-9.34C1217.7,1008.24,1215.62,1007.04,1213.04,1006.58z"/>
	<path class="st53" d="M1316.83,859.85c4.56-9.58,6.93-20.06,6.93-30.92c0-39.78-32.36-72.14-72.14-72.14
		c-15.94,0-31.02,5.1-43.45,14.54c-13.21-20.04-35.82-32.5-60.27-32.5c-39.78,0-72.14,32.36-72.14,72.14c0,3.4,0.25,6.75,0.71,10.03
		c-5.65-1.24-11.49-1.89-17.43-1.89c-9.89,0-19.84,1.67-30.43,5.11c-19.27,6.26-35.13,16.9-47.15,31.63
		c-11.79,14.44-18.75,32.23-20.35,51.83c-6.34,0.69-12.73,2.09-19.35,4.24c-14.49,4.71-26.97,11.99-37.11,21.66
		c-4.12-0.66-8.33-1-12.57-1c-9.36,0-18.7,1.56-28.54,4.76c-0.65,0.21-1.31,0.43-1.97,0.67c-3.44-3.46-7.11-6.63-10.99-9.48
		c-12.63-9.28-26.85-15.28-42.26-17.82c-10.16-1.68-20.41-2.17-30.41-1.46l-0.14,0.01c-8.74,0.64-16.67,1.87-24.23,3.75
		c-5.38,1.33-9.67,2.52-13.12,3.64l-5.06,1.64c-3.41,1.1-7.52,2.63-12.92,4.8c-6.89,2.76-13.98,6.26-21.67,10.69
		c-7.88,4.54-15.85,10.07-23.69,16.43c-9.59,7.77-18.33,17.02-25.97,27.5c-7.94,10.89-14.43,23.19-19.27,36.55
		c-5.38,14.81-8.11,31.05-8.11,48.26v88.64c0,19.72,3.37,36.51,10.31,51.32c7.46,16.01,17.98,29.06,31.26,38.79
		c12.38,9.08,26.29,15.06,41.37,17.78c7.71,1.39,15.48,2.1,23.11,2.1c2.59,0,5.21-0.08,7.77-0.24c8.83-0.54,17.28-1.81,25.14-3.77
		c5.64-1.41,9.7-2.54,13.18-3.67l4.91-1.6c1.84-0.59,3.78-1.26,5.64-1.91l0.54-0.19c1.25-0.44,2.53-0.9,3.85-1.41
		c2.83,0.91,5.76,1.67,8.72,2.27c4.71,0.96,9.58,1.44,14.47,1.44c8.57,0,17.23-1.45,26.45-4.41l0.39-0.12
		c6.77-2.22,13.47-5.41,19.93-9.48c7.96-5.01,15.28-11.59,21.75-19.53c0.52-0.64,1.03-1.3,1.54-1.96c1.8-2.4,3.5-4.88,5.07-7.42
		c0.25,0,0.51,0,0.76,0h0.27c12.27,0,24.54-1.97,36.47-5.84c9.81-3.19,18.95-7.58,27.2-13.07c9.2-0.14,18.51-1.78,28.42-5
		c14.96-4.86,27.73-12.32,37.95-22.18c1.01-0.97,2-1.97,2.97-2.99c5.52,1.22,11.2,1.84,16.95,1.84c9.39,0,18.77-1.57,28.68-4.79
		c14.5-4.71,26.99-12.02,37.12-21.73c0.39-0.38,0.79-0.76,1.19-1.16c0.26,0.04,0.53,0.08,0.79,0.11
		c10.13,1.42,20.73,1.04,31.24-1.11c5.66-1.16,11.22-2.61,16.53-4.34l58.59-19.04c5.61-1.82,11.17-3.95,16.53-6.33
		c8.96-3.98,17.21-9.12,24.54-15.31c9.1-7.69,16.53-16.98,22.09-27.63c6.49-12.46,9.78-26.28,9.78-41.05
		c0-7.02-0.78-13.36-2.05-19.1c6.06,1.66,12.43,2.56,19.01,2.56c39.77,0,72.13-32.36,72.13-72.13
		C1376.26,895.43,1350.57,865.87,1316.83,859.85z M1304.13,986c-30.4,0-55.14-24.73-55.14-55.13c0-12.1,3.84-23.58,11.11-33.21
		l10.53-13.94l-17.46,0.32c-0.51,0.01-1.03,0.02-1.54,0.02c-21.59,0-41.31-12.71-50.24-32.38l-5.17-11.39l-8.69,9
		c-10.47,10.84-24.54,16.81-39.62,16.81c-30.4,0-55.14-24.73-55.14-55.13c0-30.4,24.74-55.14,55.14-55.14
		c21.59,0,41.3,12.71,50.23,32.38l5.16,11.38l8.69-8.99c10.48-10.84,24.56-16.82,39.64-16.82c30.4,0,55.14,24.74,55.14,55.14
		c0,12.09-3.84,23.57-11.11,33.2l-10.46,13.92l17.45-0.3c0.5-0.01,1-0.02,1.5-0.02c30.4,0,55.13,24.74,55.13,55.14
		C1359.26,961.27,1334.53,986,1304.13,986z M1270.17,1019.55c0,12.01-2.64,23.18-7.85,33.19c-4.53,8.68-10.58,16.25-17.98,22.5
		c-6.1,5.14-12.98,9.44-20.47,12.76c-4.82,2.14-9.83,4.06-14.88,5.7l-58.59,19.04c-4.7,1.53-9.63,2.82-14.68,3.85
		c-8.62,1.76-17.24,2.08-25.49,0.92c-1.38-0.19-2.81-0.44-4.37-0.77l-4.75-1l-3.28,3.58c-1.39,1.51-2.56,2.73-3.7,3.81
		c-8.27,7.92-18.56,13.92-30.61,17.84c-8.19,2.66-15.85,3.95-23.43,3.95c-5.97,0-11.82-0.84-17.38-2.5l-5.31-1.58l-3.59,4.22
		c-1.72,2.02-3.55,3.97-5.44,5.79c-8.35,8.05-18.92,14.19-31.4,18.25c-9.09,2.96-17.48,4.3-25.65,4.17l-2.77-0.05l-2.27,1.6
		c-7.44,5.24-15.82,9.4-24.93,12.35c-10.23,3.33-20.73,5.01-31.22,5.01h-0.25c-1.59,0-3.27-0.06-5.01-0.18l-5.43-0.36l-2.6,4.79
		c-1.86,3.43-4.01,6.77-6.39,9.93c-0.37,0.49-0.75,0.98-1.14,1.46c-5.3,6.51-11.24,11.86-17.63,15.89
		c-5.28,3.33-10.72,5.93-16.11,7.69l-0.32,0.1c-7.54,2.42-14.5,3.6-21.28,3.6c-3.76,0-7.49-0.37-11.09-1.1
		c-3.23-0.65-6.39-1.54-9.38-2.64l-3.09-1.13l-3.05,1.24c-2.16,0.88-4.13,1.63-6.03,2.29l-0.5,0.17c-1.95,0.68-3.65,1.26-5.32,1.8
		l-4.92,1.61c-3.08,1-6.79,2.03-12.04,3.34c-6.85,1.71-14.27,2.82-22.07,3.29c-8.78,0.55-17.82,0-26.8-1.62
		c-12.51-2.26-24.06-7.22-34.34-14.76c-10.95-8.02-19.66-18.88-25.91-32.27c-5.86-12.52-8.71-26.95-8.71-44.12v-88.64
		c0-15.23,2.38-29.52,7.09-42.46c4.3-11.86,10.03-22.74,17.03-32.33c6.77-9.29,14.49-17.47,22.94-24.31
		c7.14-5.8,14.37-10.81,21.47-14.91c6.98-4.02,13.36-7.17,19.5-9.64c5.05-2.03,8.81-3.43,11.84-4.41l5.06-1.64
		c3.07-0.99,6.98-2.08,11.98-3.32c6.62-1.65,13.61-2.73,21.37-3.3l-0.62-8.48l0.72,8.47c8.68-0.62,17.58-0.19,26.44,1.27
		c12.75,2.1,24.51,7.06,34.96,14.75c4.46,3.28,8.62,7.1,12.35,11.36l3.99,4.55l5.61-2.29c2.38-0.97,4.39-1.72,6.32-2.34
		c8.12-2.64,15.74-3.92,23.29-3.92c4.61,0,9.16,0.5,13.52,1.48l4.7,1.06l3.32-3.48c0.8-0.83,1.62-1.66,2.45-2.46
		c8.34-8.04,18.75-14.13,30.94-18.09c7.77-2.52,15.08-3.8,22.36-3.9l8.32-0.11l0.06-8.32c0.14-18.82,5.97-35.82,16.87-49.16
		c9.92-12.16,23.12-20.98,39.23-26.21c8.86-2.88,17.1-4.28,25.18-4.28c8.06,0,15.86,1.47,23.03,4.3
		c11.29,25.13,36.54,42.69,65.83,42.69c15.94,0,31.01-5.1,43.44-14.53c10.89,16.51,28.16,27.88,47.58,31.36
		c-4.57,9.59-6.94,20.08-6.94,30.94c0,24.9,12.69,46.9,31.94,59.86C1267.44,998.03,1270.17,1007.55,1270.17,1019.55z"/>
	<path class="st52" d="M1153.69,842.32c-0.13-0.19-0.26-0.37-0.41-0.55c-0.15-0.18-0.3-0.35-0.46-0.51
		c-0.16-0.16-0.33-0.31-0.51-0.46c-0.18-0.14-0.36-0.28-0.55-0.41c-0.19-0.12-0.39-0.24-0.59-0.35c-0.2-0.11-0.41-0.21-0.61-0.29
		c-0.21-0.08-0.43-0.16-0.64-0.23c-0.22-0.06-0.44-0.12-0.66-0.17c-0.22-0.04-0.45-0.08-0.68-0.1c-0.45-0.05-0.92-0.05-1.37,0
		c-0.23,0.02-0.45,0.06-0.68,0.1c-0.22,0.05-0.44,0.1-0.66,0.17c-0.22,0.07-0.43,0.15-0.64,0.23c-0.21,0.09-0.42,0.19-0.61,0.29
		c-0.2,0.11-0.4,0.23-0.59,0.35c-0.19,0.13-0.37,0.26-0.55,0.41s-0.35,0.3-0.51,0.46c-0.16,0.16-0.32,0.33-0.46,0.51
		c-0.14,0.18-0.28,0.36-0.4,0.55c-0.13,0.19-0.24,0.39-0.35,0.59c-0.11,0.2-0.21,0.41-0.29,0.61c-0.08,0.21-0.16,0.43-0.23,0.64
		c-0.06,0.22-0.12,0.44-0.17,0.66c-0.04,0.22-0.08,0.45-0.1,0.68c-0.02,0.23-0.03,0.46-0.03,0.68c0,0.23,0.01,0.46,0.03,0.69
		c0.02,0.23,0.06,0.45,0.1,0.68c0.05,0.22,0.1,0.44,0.17,0.66c0.06,0.21,0.15,0.43,0.23,0.64c0.09,0.21,0.19,0.42,0.29,0.61
		c0.1,0.2,0.22,0.4,0.35,0.59c0.13,0.19,0.26,0.37,0.4,0.55c0.15,0.18,0.3,0.35,0.46,0.51c0.16,0.16,0.33,0.32,0.51,0.46
		c0.18,0.14,0.36,0.28,0.55,0.4c0.19,0.13,0.39,0.24,0.59,0.35c0.2,0.11,0.4,0.21,0.61,0.29c0.21,0.08,0.42,0.16,0.64,0.23
		c0.22,0.07,0.44,0.12,0.66,0.17c0.23,0.04,0.45,0.08,0.68,0.1c0.23,0.02,0.46,0.03,0.69,0.03c0.23,0,0.46-0.01,0.68-0.03
		c0.23-0.02,0.45-0.06,0.68-0.1c0.22-0.05,0.45-0.1,0.66-0.17c0.21-0.06,0.43-0.14,0.64-0.23c0.21-0.09,0.42-0.19,0.61-0.29
		c0.2-0.11,0.4-0.22,0.59-0.35c0.19-0.13,0.37-0.26,0.55-0.4c0.18-0.14,0.35-0.3,0.51-0.46c0.16-0.16,0.31-0.33,0.46-0.51
		c0.15-0.18,0.28-0.36,0.41-0.55c0.12-0.19,0.24-0.39,0.35-0.59c0.11-0.2,0.21-0.4,0.29-0.61c0.09-0.21,0.16-0.43,0.23-0.64
		c0.06-0.22,0.12-0.44,0.16-0.66c0.05-0.23,0.08-0.45,0.1-0.68c0.02-0.23,0.03-0.46,0.03-0.69c0-0.23-0.01-0.46-0.03-0.68
		c-0.02-0.23-0.06-0.45-0.1-0.68c-0.04-0.22-0.1-0.45-0.16-0.66c-0.07-0.21-0.15-0.43-0.23-0.64c-0.08-0.21-0.18-0.42-0.29-0.61
		C1153.93,842.71,1153.81,842.51,1153.69,842.32z"/>
	<path class="st52" d="M1147.9,834.21c3.84,0,6.96-3.12,6.96-6.96v-51.49c0-3.84-3.12-6.96-6.96-6.96s-6.96,3.12-6.96,6.96v51.49
		C1140.94,831.09,1144.06,834.21,1147.9,834.21z"/>
	<path class="st52" d="M1252.92,868.27c-0.04-0.21-0.09-0.42-0.16-0.62c-0.06-0.2-0.13-0.4-0.21-0.6c-0.08-0.2-0.18-0.39-0.27-0.58
		c-0.1-0.19-0.21-0.37-0.33-0.55c-0.12-0.18-0.25-0.35-0.38-0.52c-0.14-0.16-0.28-0.33-0.43-0.48c-0.15-0.15-0.31-0.3-0.48-0.43
		c-0.16-0.14-0.34-0.26-0.52-0.38c-0.18-0.12-0.36-0.23-0.55-0.33c-0.19-0.1-0.38-0.19-0.58-0.28c-0.2-0.08-0.4-0.15-0.6-0.21
		c-0.2-0.06-0.41-0.11-0.62-0.16c-0.21-0.04-0.42-0.07-0.63-0.09c-0.43-0.04-0.86-0.04-1.28,0c-0.21,0.02-0.43,0.05-0.63,0.09
		c-0.21,0.04-0.42,0.1-0.62,0.16c-0.2,0.06-0.41,0.14-0.6,0.21c-0.19,0.08-0.39,0.18-0.58,0.28c-0.19,0.1-0.37,0.21-0.55,0.33
		c-0.18,0.12-0.35,0.25-0.52,0.38c-0.16,0.13-0.33,0.28-0.48,0.43c-0.15,0.15-0.29,0.31-0.43,0.48s-0.26,0.34-0.38,0.52
		c-0.11,0.18-0.23,0.36-0.33,0.55c-0.1,0.19-0.19,0.38-0.27,0.58c-0.08,0.2-0.15,0.4-0.22,0.6c-0.06,0.2-0.11,0.41-0.15,0.62
		c-0.04,0.21-0.08,0.42-0.1,0.63c-0.02,0.21-0.03,0.43-0.03,0.64c0,1.72,0.7,3.4,1.91,4.62c0.15,0.15,0.31,0.3,0.48,0.43
		c0.16,0.14,0.34,0.26,0.52,0.38c0.18,0.11,0.36,0.23,0.55,0.33c0.19,0.1,0.38,0.19,0.58,0.28c0.2,0.08,0.4,0.15,0.6,0.21
		c0.2,0.06,0.41,0.11,0.62,0.16c0.21,0.04,0.42,0.07,0.63,0.09c0.21,0.02,0.43,0.03,0.64,0.03c0.22,0,0.43-0.01,0.64-0.03
		c0.21-0.02,0.42-0.05,0.63-0.09c0.21-0.04,0.42-0.1,0.62-0.16c0.2-0.06,0.4-0.14,0.6-0.21c0.2-0.08,0.39-0.18,0.58-0.28
		c0.19-0.1,0.37-0.21,0.55-0.33c0.18-0.12,0.35-0.25,0.52-0.38c0.16-0.13,0.33-0.28,0.48-0.43c1.22-1.22,1.91-2.9,1.91-4.62
		c0-0.21-0.01-0.43-0.03-0.64C1252.99,868.69,1252.96,868.48,1252.92,868.27z"/>
	<path class="st52" d="M1236.85,803.21h20.91c5.87,0,10.65,4.78,10.65,10.65s-4.78,10.65-10.65,10.65h-11.25
		c-3.61,0-6.53,2.92-6.53,6.53v20.23c0,3.61,2.92,6.53,6.53,6.53c3.61,0,6.53-2.92,6.53-6.53v-13.7h4.72
		c13.07,0,23.71-10.64,23.71-23.71c0-13.07-10.64-23.71-23.71-23.71h-20.91c-3.61,0-6.53,2.92-6.53,6.53
		S1233.24,803.21,1236.85,803.21z"/>
	<path class="st52" d="M1344.77,899.76c-3.38-3.38-8.86-3.38-12.23,0l-43.88,43.88l-12.93-12.93c-3.38-3.38-8.86-3.38-12.23,0
		c-3.38,3.38-3.38,8.86,0,12.23l19.05,19.05c1.69,1.69,3.9,2.53,6.12,2.53s4.43-0.84,6.12-2.53l50-50
		C1348.15,908.61,1348.15,903.13,1344.77,899.76z"/>
</g>
</svg>
